<svg width="64" height="64" viewBox="0 0 64 64" fill="none" xmlns="http://www.w3.org/2000/svg">
<path opacity="0.4" d="M54.667 27.1733H46.9603C40.6403 27.1733 35.4937 22.0267 35.4937 15.7067V8.00001C35.4937 6.53334 34.2937 5.33334 32.827 5.33334H21.5203C13.307 5.33334 6.66699 10.6667 6.66699 20.1867V43.8133C6.66699 53.3333 13.307 58.6667 21.5203 58.6667H42.4803C50.6937 58.6667 57.3337 53.3333 57.3337 43.8133V29.84C57.3337 28.3733 56.1337 27.1733 54.667 27.1733Z" fill="#CBC5B5"/>
<path d="M31 43.25C32.2426 43.25 33.25 42.2426 33.25 41C33.25 39.7574 32.2426 38.75 31 38.75C29.7574 38.75 28.75 39.7574 28.75 41C28.75 42.2426 29.7574 43.25 31 43.25Z" fill="white"/>
<path d="M31 35.25C32.2426 35.25 33.25 34.2426 33.25 33C33.25 31.7574 32.2426 30.75 31 30.75C29.7574 30.75 28.75 31.7574 28.75 33C28.75 34.2426 29.7574 35.25 31 35.25Z" fill="white"/>
<path d="M31 51.25C32.2426 51.25 33.25 50.2426 33.25 49C33.25 47.7574 32.2426 46.75 31 46.75C29.7574 46.75 28.75 47.7574 28.75 49C28.75 50.2426 29.7574 51.25 31 51.25Z" fill="white"/>
<path d="M15 43.25C16.2426 43.25 17.25 42.2426 17.25 41C17.25 39.7574 16.2426 38.75 15 38.75C13.7574 38.75 12.75 39.7574 12.75 41C12.75 42.2426 13.7574 43.25 15 43.25Z" fill="white"/>
<path d="M30 41.75C30.41 41.75 30.75 41.41 30.75 41C30.75 40.59 30.41 40.25 30 40.25H22.75V36C22.75 34.42 23.42 33.75 25 33.75H30C30.41 33.75 30.75 33.41 30.75 33C30.75 32.59 30.41 32.25 30 32.25H25C22.58 32.25 21.25 33.58 21.25 36V40.25H16C15.59 40.25 15.25 40.59 15.25 41C15.25 41.41 15.59 41.75 16 41.75H21.25V46C21.25 48.42 22.58 49.75 25 49.75H30C30.41 49.75 30.75 49.41 30.75 49C30.75 48.59 30.41 48.25 30 48.25H25C23.42 48.25 22.75 47.58 22.75 46V41.75H30Z" fill="white"/>
<path opacity="0.4" d="M46.4798 23.4933C49.0132 23.52 52.5332 23.52 55.5465 23.52C57.0665 23.52 57.8665 21.7333 56.7998 20.6667C52.9598 16.8 46.0798 9.84 42.1332 5.89334C41.0398 4.8 39.1465 5.54667 39.1465 7.06667V16.3733C39.1465 20.2667 42.4532 23.4933 46.4798 23.4933Z" fill="#CBC5B5"/>
</svg>
