<?xml version="1.0" encoding="utf-8"?>
<!-- Generator: Adobe Illustrator 28.0.0, SVG Export Plug-In . SVG Version: 6.00 Build 0)  -->
<svg version="1.1" id="Layer_1" xmlns="http://www.w3.org/2000/svg" xmlns:xlink="http://www.w3.org/1999/xlink" x="0px" y="0px"
	 viewBox="0 0 20 20" style="enable-background:new 0 0 20 20;" xml:space="preserve">
<style type="text/css">
	.st0{fill:#838F3A;fill-opacity:0.6;}
</style>
<path class="st0" d="M14,0H6C2,0,0,2,0,6v13c0,0.6,0.4,1,1,1h13c4,0,6-2,6-6V6C20,2,18,0,14,0z M9.1,14.7c-0.2,0.2-0.7,0.5-1,0.5
	L6,15.5c-0.1,0-0.2,0-0.2,0c-0.3,0-0.7-0.1-0.9-0.4c-0.3-0.3-0.4-0.7-0.3-1.1l0.3-2.1c0.1-0.3,0.3-0.8,0.5-1.1l3.8-3.8
	c0.1,0.2,0.1,0.4,0.2,0.6C9.4,7.9,9.5,8,9.6,8.2c0.1,0.1,0.2,0.3,0.2,0.4c0.1,0.1,0.2,0.3,0.3,0.3c0,0.1,0.1,0.1,0.1,0.1
	c0.2,0.2,0.5,0.5,0.7,0.7C11,9.8,11,9.8,11,9.8c0.1,0.1,0.2,0.2,0.4,0.3c0.1,0.1,0.3,0.2,0.4,0.3c0.2,0.1,0.4,0.2,0.5,0.3
	c0.2,0.1,0.4,0.2,0.6,0.2L9.1,14.7z M14.6,9.2L13.8,10c-0.1,0-0.1,0.1-0.2,0.1c0,0-0.1,0-0.1,0c-1.7-0.5-3.1-1.9-3.6-3.6
	c0-0.1,0-0.2,0.1-0.3l0.8-0.8c1.3-1.3,2.5-1.3,3.8,0c0.6,0.6,1,1.3,0.9,1.9C15.5,8,15.2,8.6,14.6,9.2z"/>
</svg>
