<?xml version="1.0" encoding="utf-8"?>
<!-- Generator: Adobe Illustrator 28.0.0, SVG Export Plug-In . SVG Version: 6.00 Build 0)  -->
<svg version="1.1" id="Layer_1" xmlns="http://www.w3.org/2000/svg" xmlns:xlink="http://www.w3.org/1999/xlink" x="0px" y="0px"
	 viewBox="0 0 14 14" style="enable-background:new 0 0 14 14;" xml:space="preserve">
<style type="text/css">
	.st0{fill:#CBC5B5;}
</style>
<path class="st0" d="M12.7,4.9c-1.3,0-1.8-0.9-1.2-2.1c0.4-0.7,0.1-1.5-0.5-1.9L9.8,0.2C9.3-0.2,8.5,0,8.2,0.6L8.1,0.8
	c-0.6,1.2-1.7,1.2-2.3,0L5.8,0.6C5.4,0,4.7-0.2,4.2,0.2L3,0.9C2.3,1.3,2.1,2.2,2.5,2.8C3.1,4,2.6,4.9,1.3,4.9C0.6,4.9,0,5.6,0,6.3
	v1.3c0,0.8,0.6,1.4,1.3,1.4c1.3,0,1.8,0.9,1.1,2.1c-0.4,0.7-0.1,1.5,0.5,1.9l1.2,0.7c0.6,0.3,1.3,0.1,1.6-0.4l0.1-0.1
	c0.6-1.2,1.7-1.2,2.3,0l0.1,0.1c0.3,0.6,1,0.8,1.6,0.4l1.2-0.7c0.6-0.4,0.9-1.3,0.5-1.9c-0.6-1.2-0.1-2.1,1.1-2.1
	c0.7,0,1.3-0.6,1.3-1.4V6.3C14,5.6,13.4,4.9,12.7,4.9z M7,9.4C5.7,9.4,4.7,8.3,4.7,7s1-2.4,2.3-2.4c1.3,0,2.3,1.1,2.3,2.4
	S8.2,9.4,7,9.4z"/>
</svg>
