<?xml version="1.0" encoding="utf-8"?>
<!-- Generator: Adobe Illustrator 28.0.0, SVG Export Plug-In . SVG Version: 6.00 Build 0)  -->
<svg version="1.1" id="Layer_1" xmlns="http://www.w3.org/2000/svg" xmlns:xlink="http://www.w3.org/1999/xlink" x="0px" y="0px"
	 viewBox="0 0 20 20" style="enable-background:new 0 0 20 20;" xml:space="preserve">
<style type="text/css">
	.st0{fill:#CBC5B5;}
</style>
<path class="st0" d="M15.1,16H4.9C4.4,16,4,15.6,4,15c0-0.5,0.4-1,0.9-1h10.2c0.5,0,0.9,0.4,0.9,1C16,15.6,15.6,16,15.1,16z"/>
<path class="st0" d="M15.1,11H4.9C4.4,11,4,10.5,4,10c0-0.5,0.4-1,0.9-1h10.2c0.5,0,0.9,0.4,0.9,1C16,10.5,15.6,11,15.1,11z"/>
<path class="st0" d="M15.1,5.9H4.9C4.4,5.9,4,5.5,4,5s0.4-1,0.9-1h10.2C15.6,4,16,4.4,16,5S15.6,5.9,15.1,5.9z"/>
</svg>
