<?xml version="1.0" encoding="utf-8"?>
<!-- Generator: Adobe Illustrator 28.0.0, SVG Export Plug-In . SVG Version: 6.00 Build 0)  -->
<svg version="1.1" id="Layer_1" xmlns="http://www.w3.org/2000/svg" xmlns:xlink="http://www.w3.org/1999/xlink" x="0px" y="0px"
	 viewBox="0 0 1274.7 405.3" style="enable-background:new 0 0 1274.7 405.3;" xml:space="preserve">
<style type="text/css">
	.st0{stroke:#000000;stroke-width:10;stroke-miterlimit:10;}
</style>
<path class="st0" d="M380,202.5h36.8v-0.2c0.1-105.2-85.2-190.6-190.4-190.8v36.8c41,0,79.5,16.1,108.5,45s45,67.7,45,108.9
	L380,202.5L380,202.5L380,202.5z"/>
<path class="st0" d="M72.3,202.6H35.5v0.2c0,105.2,85.2,190.6,190.4,190.8v-36.8c-41,0-79.5-16.1-108.5-45s-45-67.7-45-108.9V202.6
	L72.3,202.6L72.3,202.6z"/>
<polygon class="st0" points="226,202.5 372.4,393.5 416.9,393.5 270.5,202.5 "/>
<path class="st0" d="M1202.3,202.5h36.8v-0.2c0-105.2-85.2-190.6-190.4-190.8v36.8c41,0,79.5,16.1,108.5,45c29,29,45,67.7,45,108.9
	V202.5z"/>
<path class="st0" d="M894.6,202.6h-36.8v0.2c0,105.2,85.2,190.6,190.4,190.8v-36.8c-41,0-79.5-16.1-108.5-45s-45-67.7-45-108.9
	V202.6L894.6,202.6L894.6,202.6z"/>
<polygon class="st0" points="1048.4,202.5 1194.8,393.5 1239.2,393.5 1092.9,202.5 "/>
<g>
	<polygon class="st0" points="535.6,11.5 491.1,11.5 783.9,393.5 828.4,393.5 	"/>
	<g>
		<polygon class="st0" points="720.6,152.1 828.4,11.5 783.9,11.5 698.3,123.1 		"/>
		<polygon class="st0" points="599,252.7 491.1,393.5 535.6,393.5 621.2,281.8 		"/>
	</g>
</g>
</svg>
