<svg width="64" height="64" viewBox="0 0 64 64" fill="none" xmlns="http://www.w3.org/2000/svg">
<g opacity="0.4">
<path d="M42.1332 5.89334C41.0398 4.8 39.1465 5.54667 39.1465 7.06667V16.3733C39.1465 20.2667 42.4532 23.4933 46.4798 23.4933C49.0132 23.52 52.5332 23.52 55.5465 23.52C57.0665 23.52 57.8665 21.7333 56.7998 20.6667C52.9598 16.8 46.0798 9.84 42.1332 5.89334Z" fill="#CBC5B5"/>
<path d="M54.667 27.1733H46.9603C40.6403 27.1733 35.4937 22.0267 35.4937 15.7067V8.00001C35.4937 6.53334 34.2937 5.33334 32.827 5.33334H21.5203C13.307 5.33334 6.66699 10.6667 6.66699 20.1867V43.8133C6.66699 53.3333 13.307 58.6667 21.5203 58.6667H42.4803C50.6937 58.6667 57.3337 53.3333 57.3337 43.8133V29.84C57.3337 28.3733 56.1337 27.1733 54.667 27.1733ZM30.667 47.3333H20.0003C18.907 47.3333 18.0003 46.4267 18.0003 45.3333C18.0003 44.24 18.907 43.3333 20.0003 43.3333H30.667C31.7603 43.3333 32.667 44.24 32.667 45.3333C32.667 46.4267 31.7603 47.3333 30.667 47.3333ZM36.0003 36.6667H20.0003C18.907 36.6667 18.0003 35.76 18.0003 34.6667C18.0003 33.5733 18.907 32.6667 20.0003 32.6667H36.0003C37.0937 32.6667 38.0003 33.5733 38.0003 34.6667C38.0003 35.76 37.0937 36.6667 36.0003 36.6667Z" fill="#CBC5B5"/>
</g>
</svg>
