<?xml version="1.0" encoding="utf-8"?>
<!-- Generator: Adobe Illustrator 28.0.0, SVG Export Plug-In . SVG Version: 6.00 Build 0)  -->
<svg version="1.1" id="Layer_1" xmlns="http://www.w3.org/2000/svg" xmlns:xlink="http://www.w3.org/1999/xlink" x="0px" y="0px"
	 viewBox="0 0 20 20" style="enable-background:new 0 0 20 20;" xml:space="preserve">
<style type="text/css">
	.st0{fill-rule:evenodd;clip-rule:evenodd;fill:#CBC5B5;}
</style>
<path class="st0" d="M5.3,0h9.3C18.1,0,20,1.9,20,5.3v9.3c0,3.4-1.9,5.3-5.3,5.3H5.3C1.9,20,0,18.1,0,14.7V5.3C0,1.9,1.9,0,5.3,0z
	 M10.8,10.8h2.8c0.5,0,0.8-0.4,0.8-0.8c0-0.5-0.4-0.8-0.8-0.8h-2.8V6.3c0-0.5-0.4-0.8-0.8-0.8S9.2,5.9,9.2,6.3v2.8H6.3
	c-0.2,0-0.4,0.1-0.6,0.2C5.6,9.6,5.5,9.8,5.5,10c0,0.5,0.4,0.8,0.8,0.8h2.8v2.8c0,0.5,0.4,0.8,0.8,0.8s0.8-0.4,0.8-0.8V10.8z"/>
</svg>
