<?xml version="1.0" encoding="utf-8"?>
<!-- Generator: Adobe Illustrator 28.0.0, SVG Export Plug-In . SVG Version: 6.00 Build 0)  -->
<svg version="1.1" id="Layer_1" xmlns="http://www.w3.org/2000/svg" xmlns:xlink="http://www.w3.org/1999/xlink" x="0px" y="0px"
	 viewBox="0 0 20 20" style="enable-background:new 0 0 20 20;" xml:space="preserve">
<style type="text/css">
	.st0{opacity:0.3;fill:#2D2D25;enable-background:new    ;}
</style>
<path class="st0" d="M10,19.6c4.6,0,8.4-3.8,8.4-8.4c0-1.7-0.5-3.3-1.4-4.7c-0.3-0.5-1-0.6-1.5-0.3c-0.5,0.3-0.6,1-0.3,1.5
	c0.7,1,1,2.2,1,3.4c0,3.4-2.8,6.2-6.2,6.2c-3.4,0-6.2-2.8-6.2-6.2c0-3.3,2.5-6,5.7-6.2L8.9,5.5C8.5,5.8,8.3,6.5,8.7,7
	c0.4,0.5,1,0.6,1.5,0.2l2.8-2.1c0.1-0.1,0.2-0.2,0.3-0.3c0,0,0,0,0-0.1c0.1-0.1,0.1-0.2,0.1-0.3c0-0.1,0-0.3,0-0.4
	c0-0.1,0-0.1,0-0.2c0-0.1-0.1-0.2-0.1-0.3c0,0-0.1,0-0.1-0.1l-2.4-2.8c-0.4-0.5-1.1-0.5-1.5-0.1C8.8,1.1,8.8,1.8,9.2,2.2l0.5,0.6
	C5.2,3,1.6,6.7,1.6,11.2C1.6,15.8,5.4,19.6,10,19.6z"/>
</svg>
