<?xml version="1.0" encoding="utf-8"?>
<!-- Generator: Adobe Illustrator 28.0.0, SVG Export Plug-In . SVG Version: 6.00 Build 0)  -->
<svg version="1.1" id="Layer_1" xmlns="http://www.w3.org/2000/svg" xmlns:xlink="http://www.w3.org/1999/xlink" x="0px" y="0px"
	 viewBox="0 0 24 24" style="enable-background:new 0 0 24 24;" xml:space="preserve">
<style type="text/css">
	.st0{opacity:0.6;fill:#CBC5B5;enable-background:new    ;}
</style>
<g>
	<path class="st0" d="M11.9,5c0.1-2-0.9-3-3-3H5C3,2,2,3,2,5v3.9c0,2.1,1,3.1,3,3h3.9c2.1,0.1,3.1-0.9,3-3V5z"/>
	<path class="st0" d="M8.6,19.9c-0.2-0.4-0.7-0.5-1-0.3c-0.4,0.2-0.5,0.6-0.3,1l0.3,0.5C4.9,20.4,2.8,18,2.8,15
		c0-0.5-0.3-0.8-0.8-0.8S1.2,14.6,1.2,15c0,4.3,3.5,7.8,7.8,7.8c0.3,0,0.5-0.2,0.6-0.3c0.1-0.3,0.1-0.6,0-0.8L8.6,19.9z"/>
	<path class="st0" d="M15,1c-0.3,0-0.6,0.2-0.7,0.4c-0.1,0.3-0.1,0.6,0,0.8L15.4,4c0.2,0.4,0.6,0.5,1,0.3c0.4-0.2,0.5-0.6,0.3-1
		l-0.3-0.4C19.1,3.6,21.2,6,21.2,9c0,0.5,0.4,0.8,0.8,0.8s0.8-0.4,0.8-1C22.8,4.5,19.3,1,15,1z"/>
	<ellipse transform="matrix(0.9871 -0.1602 0.1602 0.9871 -2.5049 2.9266)" class="st0" cx="16.9" cy="17" rx="5.1" ry="5.1"/>
</g>
<g>
	<path class="st0" d="M11.9,5c0.1-2-0.9-3-3-3H5C3,2,2,3,2,5v3.9c0,2.1,1,3.1,3,3h3.9c2.1,0.1,3.1-0.9,3-3V5z"/>
	<path class="st0" d="M8.6,19.9c-0.2-0.4-0.7-0.5-1-0.3c-0.4,0.2-0.5,0.6-0.3,1l0.3,0.5C4.9,20.4,2.8,18,2.8,15
		c0-0.5-0.3-0.8-0.8-0.8S1.2,14.6,1.2,15c0,4.3,3.5,7.8,7.8,7.8c0.3,0,0.5-0.2,0.6-0.3c0.1-0.3,0.1-0.6,0-0.8L8.6,19.9z"/>
	<path class="st0" d="M15,1c-0.3,0-0.6,0.2-0.7,0.4c-0.1,0.3-0.1,0.6,0,0.8L15.4,4c0.2,0.4,0.6,0.5,1,0.3c0.4-0.2,0.5-0.6,0.3-1
		l-0.3-0.4C19.1,3.6,21.2,6,21.2,9c0,0.5,0.4,0.8,0.8,0.8s0.8-0.4,0.8-1C22.8,4.5,19.3,1,15,1z"/>
	<ellipse transform="matrix(0.9871 -0.1602 0.1602 0.9871 -2.5049 2.9266)" class="st0" cx="16.9" cy="17" rx="5.1" ry="5.1"/>
</g>
<g>
	<path class="st0" d="M11.9,5c0.1-2-0.9-3-3-3H5C3,2,2,3,2,5v3.9c0,2.1,1,3.1,3,3h3.9c2.1,0.1,3.1-0.9,3-3V5z"/>
	<path class="st0" d="M8.6,19.9c-0.2-0.4-0.7-0.5-1-0.3c-0.4,0.2-0.5,0.6-0.3,1l0.3,0.5C4.9,20.4,2.8,18,2.8,15
		c0-0.5-0.3-0.8-0.8-0.8S1.2,14.6,1.2,15c0,4.3,3.5,7.8,7.8,7.8c0.3,0,0.5-0.2,0.6-0.3c0.1-0.3,0.1-0.6,0-0.8L8.6,19.9z"/>
	<path class="st0" d="M15,1c-0.3,0-0.6,0.2-0.7,0.4c-0.1,0.3-0.1,0.6,0,0.8L15.4,4c0.2,0.4,0.6,0.5,1,0.3c0.4-0.2,0.5-0.6,0.3-1
		l-0.3-0.4C19.1,3.6,21.2,6,21.2,9c0,0.5,0.4,0.8,0.8,0.8s0.8-0.4,0.8-1C22.8,4.5,19.3,1,15,1z"/>
	<ellipse transform="matrix(0.9871 -0.1602 0.1602 0.9871 -2.5049 2.9266)" class="st0" cx="16.9" cy="17" rx="5.1" ry="5.1"/>
</g>
<g>
	<path class="st0" d="M11.9,5c0.1-2-0.9-3-3-3H5C3,2,2,3,2,5v3.9c0,2.1,1,3.1,3,3h3.9c2.1,0.1,3.1-0.9,3-3V5z"/>
	<path class="st0" d="M8.6,19.9c-0.2-0.4-0.7-0.5-1-0.3c-0.4,0.2-0.5,0.6-0.3,1l0.3,0.5C4.9,20.4,2.8,18,2.8,15
		c0-0.5-0.3-0.8-0.8-0.8S1.2,14.6,1.2,15c0,4.3,3.5,7.8,7.8,7.8c0.3,0,0.5-0.2,0.6-0.3c0.1-0.3,0.1-0.6,0-0.8L8.6,19.9z"/>
	<path class="st0" d="M15,1c-0.3,0-0.6,0.2-0.7,0.4c-0.1,0.3-0.1,0.6,0,0.8L15.4,4c0.2,0.4,0.6,0.5,1,0.3c0.4-0.2,0.5-0.6,0.3-1
		l-0.3-0.4C19.1,3.6,21.2,6,21.2,9c0,0.5,0.4,0.8,0.8,0.8s0.8-0.4,0.8-1C22.8,4.5,19.3,1,15,1z"/>
	<ellipse transform="matrix(0.9871 -0.1602 0.1602 0.9871 -2.5049 2.9266)" class="st0" cx="16.9" cy="17" rx="5.1" ry="5.1"/>
</g>
<g>
	<path class="st0" d="M11.9,5c0.1-2-0.9-3-3-3H5C3,2,2,3,2,5v3.9c0,2.1,1,3.1,3,3h3.9c2.1,0.1,3.1-0.9,3-3V5z"/>
	<path class="st0" d="M8.6,19.9c-0.2-0.4-0.7-0.5-1-0.3c-0.4,0.2-0.5,0.6-0.3,1l0.3,0.5C4.9,20.4,2.8,18,2.8,15
		c0-0.5-0.3-0.8-0.8-0.8S1.2,14.6,1.2,15c0,4.3,3.5,7.8,7.8,7.8c0.3,0,0.5-0.2,0.6-0.3c0.1-0.3,0.1-0.6,0-0.8L8.6,19.9z"/>
	<path class="st0" d="M15,1c-0.3,0-0.6,0.2-0.7,0.4c-0.1,0.3-0.1,0.6,0,0.8L15.4,4c0.2,0.4,0.6,0.5,1,0.3c0.4-0.2,0.5-0.6,0.3-1
		l-0.3-0.4C19.1,3.6,21.2,6,21.2,9c0,0.5,0.4,0.8,0.8,0.8s0.8-0.4,0.8-1C22.8,4.5,19.3,1,15,1z"/>
	<ellipse transform="matrix(0.9871 -0.1602 0.1602 0.9871 -2.5049 2.9266)" class="st0" cx="16.9" cy="17" rx="5.1" ry="5.1"/>
</g>
<g>
	<path class="st0" d="M11.9,5c0.1-2-0.9-3-3-3H5C3,2,2,3,2,5v3.9c0,2.1,1,3.1,3,3h3.9c2.1,0.1,3.1-0.9,3-3V5z"/>
	<path class="st0" d="M8.6,19.9c-0.2-0.4-0.7-0.5-1-0.3c-0.4,0.2-0.5,0.6-0.3,1l0.3,0.5C4.9,20.4,2.8,18,2.8,15
		c0-0.5-0.3-0.8-0.8-0.8S1.2,14.6,1.2,15c0,4.3,3.5,7.8,7.8,7.8c0.3,0,0.5-0.2,0.6-0.3c0.1-0.3,0.1-0.6,0-0.8L8.6,19.9z"/>
	<path class="st0" d="M15,1c-0.3,0-0.6,0.2-0.7,0.4c-0.1,0.3-0.1,0.6,0,0.8L15.4,4c0.2,0.4,0.6,0.5,1,0.3c0.4-0.2,0.5-0.6,0.3-1
		l-0.3-0.4C19.1,3.6,21.2,6,21.2,9c0,0.5,0.4,0.8,0.8,0.8s0.8-0.4,0.8-1C22.8,4.5,19.3,1,15,1z"/>
	<ellipse transform="matrix(0.9871 -0.1602 0.1602 0.9871 -2.5049 2.9266)" class="st0" cx="16.9" cy="17" rx="5.1" ry="5.1"/>
</g>
<g>
	<path class="st0" d="M11.9,5c0.1-2-0.9-3-3-3H5C3,2,2,3,2,5v3.9c0,2.1,1,3.1,3,3h3.9c2.1,0.1,3.1-0.9,3-3V5z"/>
	<path class="st0" d="M8.6,19.9c-0.2-0.4-0.7-0.5-1-0.3c-0.4,0.2-0.5,0.6-0.3,1l0.3,0.5C4.9,20.4,2.8,18,2.8,15
		c0-0.5-0.3-0.8-0.8-0.8S1.2,14.6,1.2,15c0,4.3,3.5,7.8,7.8,7.8c0.3,0,0.5-0.2,0.6-0.3c0.1-0.3,0.1-0.6,0-0.8L8.6,19.9z"/>
	<path class="st0" d="M15,1c-0.3,0-0.6,0.2-0.7,0.4c-0.1,0.3-0.1,0.6,0,0.8L15.4,4c0.2,0.4,0.6,0.5,1,0.3c0.4-0.2,0.5-0.6,0.3-1
		l-0.3-0.4C19.1,3.6,21.2,6,21.2,9c0,0.5,0.4,0.8,0.8,0.8s0.8-0.4,0.8-1C22.8,4.5,19.3,1,15,1z"/>
	<ellipse transform="matrix(0.9871 -0.1602 0.1602 0.9871 -2.5049 2.9266)" class="st0" cx="16.9" cy="17" rx="5.1" ry="5.1"/>
</g>
<g>
	<path class="st0" d="M11.9,5c0.1-2-0.9-3-3-3H5C3,2,2,3,2,5v3.9c0,2.1,1,3.1,3,3h3.9c2.1,0.1,3.1-0.9,3-3V5z"/>
	<path class="st0" d="M8.6,19.9c-0.2-0.4-0.7-0.5-1-0.3c-0.4,0.2-0.5,0.6-0.3,1l0.3,0.5C4.9,20.4,2.8,18,2.8,15
		c0-0.5-0.3-0.8-0.8-0.8S1.2,14.6,1.2,15c0,4.3,3.5,7.8,7.8,7.8c0.3,0,0.5-0.2,0.6-0.3c0.1-0.3,0.1-0.6,0-0.8L8.6,19.9z"/>
	<path class="st0" d="M15,1c-0.3,0-0.6,0.2-0.7,0.4c-0.1,0.3-0.1,0.6,0,0.8L15.4,4c0.2,0.4,0.6,0.5,1,0.3c0.4-0.2,0.5-0.6,0.3-1
		l-0.3-0.4C19.1,3.6,21.2,6,21.2,9c0,0.5,0.4,0.8,0.8,0.8s0.8-0.4,0.8-1C22.8,4.5,19.3,1,15,1z"/>
	<ellipse transform="matrix(0.9871 -0.1602 0.1602 0.9871 -2.5049 2.9266)" class="st0" cx="16.9" cy="17" rx="5.1" ry="5.1"/>
</g>
</svg>
