<svg width="48" height="48" viewBox="0 0 48 48" fill="none" xmlns="http://www.w3.org/2000/svg">
<rect width="48" height="48" rx="24" fill="#F7F4EA"/>
<path d="M27.59 18H27.25V15C27.25 14.59 26.91 14.25 26.5 14.25C26.09 14.25 25.75 14.59 25.75 15V18H22.25V15C22.25 14.59 21.91 14.25 21.5 14.25C21.09 14.25 20.75 14.59 20.75 15V18H20.41C19.36 18 18.5 18.86 18.5 19.91V25C18.5 27.2 20 29 22.5 29H23.25V35C23.25 35.41 23.59 35.75 24 35.75C24.41 35.75 24.75 35.41 24.75 35V29H25.5C28 29 29.5 27.2 29.5 25V19.91C29.5 18.86 28.64 18 27.59 18Z" fill="#CBC5B5"/>
</svg>
