<svg width="48" height="48" viewBox="0 0 48 48" fill="none" xmlns="http://www.w3.org/2000/svg">
<g clip-path="url(#clip0_49_602)">
<path fill-rule="evenodd" clip-rule="evenodd" d="M6.83244 -6.98608e-07C5.8278 -0.00802242 4.86082 0.381872 4.14272 1.08451C3.42462 1.78715 3.01378 2.74542 2.99994 3.75V44.16C2.99495 44.665 3.09061 45.166 3.28135 45.6337C3.47208 46.1013 3.75408 46.5263 4.11086 46.8838C4.46764 47.2412 4.89206 47.5241 5.35934 47.7157C5.82662 47.9074 6.3274 48.004 6.83244 48H41.1674C41.6725 48.004 42.1733 47.9074 42.6405 47.7157C43.1078 47.5241 43.5323 47.2412 43.889 46.8838C44.2458 46.5263 44.5278 46.1013 44.7185 45.6337C44.9093 45.166 45.0049 44.665 44.9999 44.16V15.21L30.7949 -6.98608e-07H6.83244Z" fill="#F9CA06"/>
<path fill-rule="evenodd" clip-rule="evenodd" d="M45 15.2625V16.0125H35.385C35.385 16.0125 30.6525 15.0675 30.7875 10.98C30.7875 10.98 30.945 15.2625 35.2875 15.2625H45Z" fill="#F7BC04"/>
<path opacity="0.5" fill-rule="evenodd" clip-rule="evenodd" d="M30.8025 0V10.92C30.8005 11.5114 30.9195 12.0969 31.1523 12.6405C31.385 13.1841 31.7265 13.6744 32.1557 14.0812C32.5849 14.4879 33.0929 14.8026 33.6482 15.0057C34.2036 15.2089 34.7946 15.2963 35.385 15.2625H45L30.8025 0Z" fill="white"/>
<path d="M18.6432 32.3978C18.7378 32.5058 18.7917 32.6408 18.7917 32.7893C18.7917 33.0728 18.5623 33.3293 18.2645 33.3293C18.1295 33.3293 17.981 33.2753 17.8865 33.1538C17.36 32.5193 16.4683 32.1135 15.6313 32.1135C13.6595 32.1135 12.161 33.6263 12.161 35.7735C12.161 37.9073 13.6603 39.4328 15.6313 39.4328C16.4818 39.4328 17.3188 39.0683 17.8865 38.406C17.9803 38.298 18.1295 38.2313 18.2645 38.2313C18.5758 38.2313 18.7917 38.5005 18.7917 38.7848C18.7917 38.9198 18.7378 39.0548 18.6432 39.1628C17.9405 39.8918 16.982 40.4325 15.632 40.4325C13.0393 40.4325 11 38.5418 11 35.7735C11 33.0053 13.0393 31.1145 15.632 31.1145C16.982 31.1153 17.954 31.6553 18.6432 32.3978ZM23.7448 40.4333C22.4082 40.4333 21.3545 39.9878 20.585 39.312C20.4635 39.204 20.4095 39.0555 20.4095 38.907C20.4095 38.6363 20.612 38.3393 20.936 38.3393C21.044 38.3393 21.1655 38.3663 21.26 38.4473C21.881 39.0015 22.745 39.4328 23.7853 39.4328C25.3925 39.4328 25.9055 38.5688 25.9055 37.8795C25.9055 35.5568 20.5715 36.84 20.5715 33.6255C20.5715 32.1405 21.8945 31.1273 23.6637 31.1273C24.8247 31.1273 25.8245 31.4775 26.5535 32.0858C26.675 32.1938 26.7425 32.3423 26.7425 32.4908C26.7425 32.7608 26.513 33.0308 26.2153 33.0308C26.1073 33.0308 25.9857 32.9903 25.8912 32.9093C25.2297 32.3693 24.4063 32.1263 23.582 32.1263C22.502 32.1263 21.7318 32.7068 21.7318 33.558C21.7318 35.5838 27.0658 34.422 27.0658 37.785C27.0665 39.096 26.1755 40.4333 23.7448 40.4333ZM36.4902 31.9928L33.371 39.744C33.2225 40.1085 32.8573 40.3515 32.48 40.3515H32.453C32.0615 40.3515 31.697 40.1085 31.5478 39.744L28.4412 31.9928C28.4142 31.9253 28.4008 31.8578 28.4008 31.7768C28.4008 31.5068 28.643 31.182 29.0082 31.182C29.2377 31.182 29.4538 31.317 29.5483 31.5465L32.465 39.0405L35.3818 31.5465C35.4628 31.3305 35.6788 31.182 35.9218 31.182C36.2728 31.182 36.5293 31.4655 36.5293 31.7768C36.53 31.8443 36.5165 31.9253 36.4902 31.9928Z" fill="white"/>
</g>
<defs>
<clipPath id="clip0_49_602">
<rect width="48" height="48" fill="white"/>
</clipPath>
</defs>
</svg>
