<svg width="48" height="48" viewBox="0 0 48 48" fill="none" xmlns="http://www.w3.org/2000/svg">
<g clip-path="url(#clip0_49_496)">
<path fill-rule="evenodd" clip-rule="evenodd" d="M6.83244 -6.98608e-07C5.8278 -0.00802242 4.86082 0.381872 4.14272 1.08451C3.42462 1.78715 3.01378 2.74542 2.99994 3.75V44.16C2.99495 44.665 3.09061 45.166 3.28135 45.6337C3.47208 46.1013 3.75408 46.5263 4.11086 46.8838C4.46764 47.2412 4.89206 47.5241 5.35934 47.7157C5.82662 47.9074 6.3274 48.004 6.83244 48H41.1674C41.6725 48.004 42.1733 47.9074 42.6405 47.7157C43.1078 47.5241 43.5323 47.2412 43.889 46.8838C44.2458 46.5263 44.5278 46.1013 44.7185 45.6337C44.9093 45.166 45.0049 44.665 44.9999 44.16V15.21L30.7949 -6.98608e-07H6.83244Z" fill="#50A6D6"/>
<path fill-rule="evenodd" clip-rule="evenodd" d="M45 15.2625V16.0125H35.385C35.385 16.0125 30.6525 15.0675 30.7875 10.98C30.7875 10.98 30.945 15.2625 35.2875 15.2625H45Z" fill="#2B7BA8"/>
<path opacity="0.5" fill-rule="evenodd" clip-rule="evenodd" d="M30.8025 0V10.92C30.8005 11.5114 30.9195 12.0969 31.1523 12.6405C31.385 13.1841 31.7265 13.6744 32.1557 14.0812C32.5849 14.4879 33.0929 14.8026 33.6482 15.0057C34.2036 15.2089 34.7946 15.2963 35.385 15.2625H45L30.8025 0Z" fill="white"/>
<path d="M13.06 40.395H10.81C10.5952 40.395 10.3891 40.3097 10.2372 40.1578C10.0853 40.0059 10 39.7998 10 39.585V32.1975C10 31.9827 10.0853 31.7767 10.2372 31.6247C10.3891 31.4728 10.5952 31.3875 10.81 31.3875H13.06C14.2535 31.3875 15.3981 31.8616 16.242 32.7055C17.0859 33.5494 17.56 34.694 17.56 35.8875C17.56 37.081 17.0859 38.2256 16.242 39.0695C15.3981 39.9134 14.2535 40.3875 13.06 40.3875V40.395ZM13.06 32.3925H11.1025V39.3975H13.06C13.523 39.4193 13.9855 39.3435 14.4174 39.1751C14.8492 39.0067 15.2409 38.7493 15.5669 38.4198C15.8929 38.0902 16.146 37.6958 16.3097 37.2622C16.4735 36.8285 16.5443 36.3653 16.5175 35.9025C16.5501 35.4377 16.4835 34.9712 16.322 34.5341C16.1605 34.097 15.9079 33.6992 15.5808 33.3673C15.2538 33.0353 14.8599 32.7767 14.4253 32.6086C13.9907 32.4406 13.5253 32.3669 13.06 32.3925ZM23.875 40.56C23.2663 40.5757 22.661 40.4646 22.0974 40.234C21.5339 40.0034 21.0244 39.6582 20.6014 39.2203C20.1783 38.7824 19.8508 38.2614 19.6397 37.6902C19.4286 37.1191 19.3384 36.5103 19.375 35.9025C19.3018 35.272 19.3629 34.6332 19.5541 34.0279C19.7453 33.4227 20.0625 32.8648 20.4846 32.3908C20.9068 31.9168 21.4244 31.5375 22.0036 31.2778C22.5827 31.018 23.2103 30.8838 23.845 30.8838C24.4797 30.8838 25.1073 31.018 25.6864 31.2778C26.2656 31.5375 26.7832 31.9168 27.2054 32.3908C27.6275 32.8648 27.9447 33.4227 28.1359 34.0279C28.3271 34.6332 28.3882 35.272 28.315 35.9025C28.35 36.5049 28.2608 37.1081 28.0529 37.6746C27.845 38.241 27.5228 38.7587 27.1065 39.1955C26.6901 39.6322 26.1884 39.9787 25.6325 40.2135C25.0766 40.4482 24.4784 40.5662 23.875 40.56ZM23.875 32.2425C21.85 32.2425 20.5675 33.795 20.5675 35.9025C20.5675 38.01 21.85 39.5625 23.875 39.5625C25.9 39.5625 27.1825 37.995 27.1825 35.9025C27.1825 33.81 25.8925 32.25 23.875 32.25V32.2425ZM37.7125 32.5275C37.8107 32.6334 37.8644 32.7731 37.8625 32.9175C37.8635 32.9874 37.8507 33.0569 37.8249 33.1219C37.799 33.1868 37.7606 33.2461 37.7119 33.2963C37.6631 33.3464 37.6049 33.3864 37.5407 33.4141C37.4765 33.4418 37.4074 33.4565 37.3375 33.4575C37.2642 33.4587 37.1917 33.4431 37.1254 33.4119C37.0591 33.3807 37.0008 33.3347 36.955 33.2775C36.6734 32.957 36.3276 32.6992 35.94 32.5209C35.5524 32.3426 35.1316 32.2478 34.705 32.2425C34.2321 32.2396 33.7637 32.3338 33.3287 32.5192C32.8937 32.7045 32.5013 32.9772 32.1758 33.3202C31.8504 33.6633 31.5987 34.0694 31.4365 34.5136C31.2742 34.9577 31.2048 35.4304 31.2325 35.9025C31.207 36.374 31.2779 36.8458 31.441 37.289C31.6041 37.7322 31.8558 38.1375 32.1808 38.4801C32.5059 38.8226 32.8973 39.0953 33.3314 39.2814C33.7654 39.4676 34.2328 39.5632 34.705 39.5625C35.1315 39.561 35.5528 39.4686 35.9408 39.2914C36.3288 39.1143 36.6746 38.8564 36.955 38.535C37.0028 38.4801 37.0615 38.4358 37.1273 38.4048C37.1932 38.3738 37.2647 38.3569 37.3375 38.355C37.4084 38.3569 37.4783 38.3728 37.543 38.4018C37.6078 38.4307 37.6663 38.4722 37.715 38.5237C37.7638 38.5753 37.8019 38.6359 37.8272 38.7022C37.8525 38.7685 37.8645 38.8391 37.8625 38.91C37.8604 39.0514 37.8071 39.1873 37.7125 39.2925C37.3294 39.7025 36.8643 40.0272 36.3474 40.2456C35.8306 40.464 35.2735 40.5711 34.7125 40.56C33.5086 40.5117 32.3701 39.9995 31.5354 39.1306C30.7007 38.2617 30.2345 37.1036 30.2345 35.8988C30.2345 34.6939 30.7007 33.5358 31.5354 32.6669C32.3701 31.798 33.5086 31.2858 34.7125 31.2375C35.2757 31.2259 35.8348 31.335 36.3522 31.5575C36.8697 31.78 37.3335 32.1108 37.7125 32.5275Z" fill="white"/>
</g>
<defs>
<clipPath id="clip0_49_496">
<rect width="48" height="48" fill="white"/>
</clipPath>
</defs>
</svg>
