<svg width="48" height="48" viewBox="0 0 48 48" fill="none" xmlns="http://www.w3.org/2000/svg">
<g clip-path="url(#clip0_49_428)">
<path fill-rule="evenodd" clip-rule="evenodd" d="M6.83244 -6.98608e-07C5.8278 -0.00802242 4.86082 0.381872 4.14272 1.08451C3.42462 1.78715 3.01378 2.74542 2.99994 3.75V44.16C2.99495 44.665 3.09061 45.166 3.28135 45.6337C3.47208 46.1013 3.75408 46.5263 4.11086 46.8838C4.46764 47.2412 4.89206 47.5241 5.35934 47.7157C5.82662 47.9074 6.3274 48.004 6.83244 48H41.1674C41.6725 48.004 42.1733 47.9074 42.6405 47.7157C43.1078 47.5241 43.5323 47.2412 43.889 46.8838C44.2458 46.5263 44.5278 46.1013 44.7185 45.6337C44.9093 45.166 45.0049 44.665 44.9999 44.16V15.21L30.7949 -6.98608e-07H6.83244Z" fill="#E7723B"/>
<path fill-rule="evenodd" clip-rule="evenodd" d="M45 15.2625V16.0125H35.385C35.385 16.0125 30.6525 15.0675 30.7875 10.98C30.7875 10.98 30.945 15.2625 35.2875 15.2625H45Z" fill="#C15523"/>
<path opacity="0.5" fill-rule="evenodd" clip-rule="evenodd" d="M30.8025 0V10.92C30.8005 11.5114 30.9195 12.0969 31.1523 12.6405C31.385 13.1841 31.7265 13.6744 32.1557 14.0812C32.5849 14.4879 33.0929 14.8026 33.6482 15.0057C34.2036 15.2089 34.7946 15.2963 35.385 15.2625H45L30.8025 0Z" fill="white"/>
<path d="M15.6003 36.7528H13.1251V39.8281C13.1251 40.1281 12.9001 40.3531 12.525 40.3531C12.225 40.3531 12 40.1281 12 39.8281V32.1775C12 31.7274 12.375 31.3524 12.8251 31.3524H15.6003C17.4004 31.3524 18.4505 32.6275 18.4505 34.0526C18.4505 35.5527 17.4004 36.7528 15.6003 36.7528ZM15.5253 32.3275H13.1251V35.7778H15.5253C16.5754 35.7778 17.3254 35.1027 17.3254 34.0526C17.3254 33.0025 16.5754 32.3275 15.5253 32.3275ZM23.3259 40.3531H21.0757C20.6257 40.3531 20.2506 39.9781 20.2506 39.5281V32.1775C20.2506 31.7274 20.6257 31.3524 21.0757 31.3524H23.3259C26.1011 31.3524 27.9763 33.3026 27.9763 35.8528C27.9763 38.403 26.1761 40.3531 23.3259 40.3531ZM23.3259 32.3275H21.3757V39.303H23.3259C25.5011 39.303 26.7762 37.7279 26.7762 35.7778C26.8512 33.9026 25.5761 32.3275 23.3259 32.3275ZM35.5518 32.3275H31.2015V35.2527H35.4768C35.7769 35.2527 35.9269 35.4777 35.9269 35.7778C35.9269 36.0778 35.7019 36.2278 35.4768 36.2278H31.2015V39.8281C31.2015 40.1281 30.9765 40.3531 30.6015 40.3531C30.3014 40.3531 30.0764 40.1281 30.0764 39.8281V32.1775C30.0764 31.7274 30.4514 31.3524 30.9015 31.3524H35.5518C35.8519 31.3524 36.0019 31.5774 36.0019 31.8775C36.0769 32.1025 35.8519 32.3275 35.5518 32.3275Z" fill="white"/>
</g>
<defs>
<clipPath id="clip0_49_428">
<rect width="48" height="48" fill="white"/>
</clipPath>
</defs>
</svg>
