<svg width="48" height="48" viewBox="0 0 48 48" fill="none" xmlns="http://www.w3.org/2000/svg">
<g clip-path="url(#clip0_49_648)">
<path fill-rule="evenodd" clip-rule="evenodd" d="M6.83244 -6.98608e-07C5.8278 -0.00802242 4.86082 0.381872 4.14272 1.08451C3.42462 1.78715 3.01378 2.74542 2.99994 3.75V44.16C2.99495 44.665 3.09061 45.166 3.28135 45.6337C3.47208 46.1013 3.75408 46.5263 4.11086 46.8838C4.46764 47.2412 4.89206 47.5241 5.35934 47.7157C5.82662 47.9074 6.3274 48.004 6.83244 48H41.1674C41.6725 48.004 42.1733 47.9074 42.6405 47.7157C43.1078 47.5241 43.5323 47.2412 43.889 46.8838C44.2458 46.5263 44.5278 46.1013 44.7185 45.6337C44.9093 45.166 45.0049 44.665 44.9999 44.16V15.21L30.7949 -6.98608e-07H6.83244Z" fill="#9B64B2"/>
<path fill-rule="evenodd" clip-rule="evenodd" d="M45 15.2625V16.0125H35.385C35.385 16.0125 30.6525 15.0675 30.7875 10.98C30.7875 10.98 30.945 15.2625 35.2875 15.2625H45Z" fill="#824B9E"/>
<path opacity="0.5" fill-rule="evenodd" clip-rule="evenodd" d="M30.8025 0V10.92C30.8005 11.5114 30.9195 12.0969 31.1523 12.6405C31.385 13.1841 31.7265 13.6744 32.1557 14.0812C32.5849 14.4879 33.0929 14.8026 33.6482 15.0057C34.2036 15.2089 34.7946 15.2963 35.385 15.2625H45L30.8025 0Z" fill="white"/>
<path d="M16.6187 36.7583H14.1205V39.8641C14.1205 40.1746 13.8775 40.4176 13.5535 40.4176C13.243 40.4176 13 40.1746 13 39.8641V32.1406C13 31.6951 13.3645 31.3298 13.81 31.3298H16.6187C18.4285 31.3298 19.441 32.5726 19.441 34.0441C19.441 35.5163 18.4007 36.7583 16.6187 36.7583ZM16.483 32.3288H14.1205V35.7586H16.483C17.5503 35.7586 18.2792 35.0566 18.2792 34.0433C18.2792 33.0316 17.5503 32.3288 16.483 32.3288ZM24.8807 36.7583H22.3818V39.8641C22.3818 40.1746 22.1388 40.4176 21.8148 40.4176C21.5043 40.4176 21.2612 40.1746 21.2612 39.8641V32.1406C21.2612 31.6951 21.6257 31.3298 22.0712 31.3298H24.8807C26.6897 31.3298 27.703 32.5726 27.703 34.0441C27.703 35.5163 26.6627 36.7583 24.8807 36.7583ZM24.7457 32.3288H22.3825V35.7586H24.7457C25.813 35.7586 26.542 35.0566 26.542 34.0433C26.5413 33.0316 25.813 32.3288 24.7457 32.3288ZM35.3298 32.3288H32.872V39.8641C32.872 40.1746 32.629 40.4176 32.305 40.4176C31.9945 40.4176 31.7515 40.1746 31.7515 39.8641V32.3288H29.3073C29.0373 32.3288 28.822 32.1128 28.822 31.8158C28.822 31.5451 29.0373 31.3298 29.3073 31.3298H35.3298C35.5997 31.3298 35.8158 31.5458 35.8158 31.8436C35.8165 32.1128 35.5997 32.3288 35.3298 32.3288Z" fill="white"/>
</g>
<defs>
<clipPath id="clip0_49_648">
<rect width="48" height="48" fill="white"/>
</clipPath>
</defs>
</svg>
