<svg width="48" height="48" viewBox="0 0 48 48" fill="none" xmlns="http://www.w3.org/2000/svg">
<g clip-path="url(#clip0_49_542)">
<path fill-rule="evenodd" clip-rule="evenodd" d="M6.83244 -6.98608e-07C5.8278 -0.00802242 4.86082 0.381872 4.14272 1.08451C3.42462 1.78715 3.01378 2.74542 2.99994 3.75V44.16C2.99495 44.665 3.09061 45.166 3.28135 45.6337C3.47208 46.1013 3.75408 46.5263 4.11086 46.8838C4.46764 47.2412 4.89206 47.5241 5.35934 47.7157C5.82662 47.9074 6.3274 48.004 6.83244 48H41.1674C41.6725 48.004 42.1733 47.9074 42.6405 47.7157C43.1078 47.5241 43.5323 47.2412 43.889 46.8838C44.2458 46.5263 44.5278 46.1013 44.7185 45.6337C44.9093 45.166 45.0049 44.665 44.9999 44.16V15.21L30.7949 -6.98608e-07H6.83244Z" fill="#45B058"/>
<path fill-rule="evenodd" clip-rule="evenodd" d="M45 15.2625V16.0125H35.385C35.385 16.0125 30.6525 15.0675 30.7875 10.98C30.7875 10.98 30.945 15.2625 35.2875 15.2625H45Z" fill="#349C42"/>
<path opacity="0.5" fill-rule="evenodd" clip-rule="evenodd" d="M30.8025 0V10.92C30.8005 11.5114 30.9195 12.0969 31.1523 12.6405C31.385 13.1841 31.7265 13.6744 32.1557 14.0812C32.5849 14.4879 33.0929 14.8026 33.6482 15.0057C34.2036 15.2089 34.7946 15.2963 35.385 15.2625H45L30.8025 0Z" fill="white"/>
<path d="M18.9545 40.4535C18.7925 40.4535 18.6433 40.386 18.5495 40.251L15.7535 36.5235L12.9448 40.251C12.8503 40.386 12.7018 40.4535 12.5398 40.4535C12.2428 40.4535 11.9998 40.224 11.9998 39.9135C11.9998 39.8055 12.026 39.684 12.1078 39.5895L15.0253 35.7413L12.311 32.1218C12.2435 32.0273 12.2023 31.9193 12.2023 31.8113C12.2023 31.5548 12.4183 31.2713 12.743 31.2713C12.905 31.2713 13.067 31.3523 13.175 31.4873L15.7535 34.9583L18.332 31.4738C18.4273 31.3388 18.575 31.2713 18.7378 31.2713C19.0213 31.2713 19.2913 31.5008 19.2913 31.8113C19.2913 31.9193 19.2643 32.0273 19.196 32.1218L16.4818 35.7278L19.4 39.5895C19.4675 39.684 19.4938 39.792 19.4938 39.9C19.4938 40.197 19.2508 40.4535 18.9545 40.4535ZM26.4463 40.359H22.355C21.9088 40.359 21.5443 39.9945 21.5443 39.549V31.8113C21.5443 31.5143 21.7873 31.2713 22.1248 31.2713C22.4218 31.2713 22.6655 31.5143 22.6655 31.8113V39.36H26.4463C26.7155 39.36 26.9323 39.576 26.9323 39.846C26.9323 40.143 26.7155 40.359 26.4463 40.359ZM31.6828 40.521C30.3463 40.521 29.2918 40.0755 28.523 39.3998C28.4015 39.2918 28.3475 39.1433 28.3475 38.9948C28.3475 38.7248 28.55 38.4278 28.874 38.4278C28.982 38.4278 29.1035 38.4548 29.1988 38.5358C29.8198 39.0893 30.6838 39.5213 31.724 39.5213C33.3313 39.5213 33.8435 38.6573 33.8435 37.968C33.8435 35.6453 28.5103 36.9285 28.5103 33.714C28.5103 32.229 29.8333 31.2158 31.6025 31.2158C32.7635 31.2158 33.7633 31.5668 34.4923 32.1743C34.6138 32.2823 34.682 32.4308 34.682 32.5793C34.682 32.8493 34.4518 33.1193 34.1548 33.1193C34.046 33.1193 33.9245 33.0788 33.8308 32.9978C33.1685 32.4578 32.3458 32.2148 31.5215 32.2148C30.4415 32.2148 29.6713 32.7953 29.6713 33.6465C29.6713 35.6723 35.0053 34.5105 35.0053 37.8735C35.0053 39.1845 34.1143 40.521 31.6828 40.521Z" fill="white"/>
</g>
<defs>
<clipPath id="clip0_49_542">
<rect width="48" height="48" fill="white"/>
</clipPath>
</defs>
</svg>
