<?xml version="1.0" encoding="utf-8"?>
<!-- Generator: Adobe Illustrator 28.0.0, SVG Export Plug-In . SVG Version: 6.00 Build 0)  -->
<svg version="1.1" id="Layer_1" xmlns="http://www.w3.org/2000/svg" xmlns:xlink="http://www.w3.org/1999/xlink" x="0px" y="0px"
	 viewBox="0 0 20 20" style="enable-background:new 0 0 20 20;" xml:space="preserve">
<style type="text/css">
	.st0{fill:#CBC5B5;}
</style>
<path class="st0" d="M17.2,9h-2.4c-2,0-3.8-2-3.8-3.9V2.8C11,2.4,10.6,2,10.2,2H6.8C4.2,2,2.1,3.6,2.1,6.5v7.1
	c0,2.9,2.1,4.5,4.7,4.5h6.6c2.6,0,4.7-1.6,4.7-4.5V9.8C18.1,9.4,17.7,9,17.2,9z"/>
<path class="st0" d="M13,2.2c-0.4-0.4-1-0.1-1,0.4C12,6.8,13.5,8,17.4,8c0.5,0,0.8-0.6,0.4-0.9C16.6,5.8,14.3,3.5,13,2.2z"/>
</svg>
